<svg width="137" height="136" viewBox="0 0 137 136" fill="none" xmlns="http://www.w3.org/2000/svg">
<g clip-path="url(#clip0_14_1059)">
<path d="M131.584 136H5.41554C2.42638 136 0 133.595 0 130.626V16.0162C0 13.0498 2.42331 10.6418 5.41554 10.6418H131.584C134.574 10.6418 137 13.0467 137 16.0162V130.626C137 133.592 134.577 136 131.584 136ZM10.828 125.254H126.169V21.3905H10.828V125.254Z" fill="white"/>
<path d="M130.354 55.7636H6.64564C3.65649 55.7636 1.2301 53.3587 1.2301 50.3892C1.2301 47.4198 3.65341 45.0149 6.64564 45.0149H130.351C133.34 45.0149 135.767 47.4198 135.767 50.3892C135.767 53.3587 133.343 55.7636 130.351 55.7636H130.354Z" fill="white"/>
<path d="M29.7378 31.9438C26.7487 31.9438 24.3223 29.5389 24.3223 26.5695V5.37432C24.3223 2.40792 26.7456 0 29.7378 0C32.73 0 35.1533 2.40487 35.1533 5.37432V26.5725C35.1533 29.5389 32.73 31.9469 29.7378 31.9469V31.9438Z" fill="white"/>
<path d="M107.262 31.9438C104.273 31.9438 101.847 29.5389 101.847 26.5695V5.37432C101.847 2.40792 104.27 0 107.262 0C110.254 0 112.678 2.40487 112.678 5.37432V26.5725C112.678 29.5389 110.254 31.9469 107.262 31.9469V31.9438Z" fill="white"/>
<path d="M40.9533 69.8693H27.2869V83.4317H40.9533V69.8693Z" fill="white"/>
<path d="M75.9437 69.8693H62.2772V83.4317H75.9437V69.8693Z" fill="white"/>
<path d="M110.934 69.8693H97.2676V83.4317H110.934V69.8693Z" fill="white"/>
<path d="M40.9533 96.2099H27.2869V109.772H40.9533V96.2099Z" fill="white"/>
<path d="M75.9437 96.2099H62.2772V109.772H75.9437V96.2099Z" fill="white"/>
<path d="M110.934 96.2099H97.2676V109.772H110.934V96.2099Z" fill="white"/>
</g>
<defs>
<clipPath id="clip0_14_1059">
<rect width="137" height="136" fill="white"/>
</clipPath>
</defs>
</svg>
