<svg width="155" height="106" viewBox="0 0 155 106" fill="none" xmlns="http://www.w3.org/2000/svg">
<g clip-path="url(#clip0_14_1071)">
<path d="M149.638 106H5.36152C2.39914 106 0 103.583 0 100.606V5.39372C0 2.41355 2.39914 0 5.36152 0H149.638C152.598 0 155 2.41355 155 5.39372V100.606C155 103.583 152.601 106 149.638 106ZM10.723 95.2126H144.28V10.7844H10.723V95.2126Z" fill="white"/>
<path d="M77.5 64.8748C76.4801 64.8748 75.4571 64.5807 74.565 63.9957L2.42656 16.5395C-0.0517347 14.9101 -0.745901 11.5685 0.87382 9.07529C2.49354 6.58211 5.81519 5.88378 8.29348 7.51323L77.5 53.0368L146.707 7.51323C149.185 5.88378 152.507 6.58211 154.126 9.07529C155.746 11.5685 155.052 14.9101 152.573 16.5395L80.435 63.9957C79.5429 64.5807 78.523 64.8748 77.5 64.8748Z" fill="white"/>
<path d="M6.05878 105.204C4.8379 105.204 3.61093 104.787 2.60621 103.933C0.344084 102.012 0.0548478 98.6093 1.96685 96.3336L48.8718 40.4024C50.7807 38.1267 54.1633 37.8388 56.4254 39.7592C58.6875 41.6796 58.9768 45.0825 57.0648 47.3582L10.1598 103.289C9.10032 104.554 7.58412 105.204 6.05878 105.204Z" fill="white"/>
<path d="M149.642 106C148.116 106 146.603 105.348 145.54 104.086L98.6355 48.1545C96.7266 45.8788 97.0128 42.4759 99.2749 40.5555C101.537 38.6351 104.92 38.923 106.829 41.1987L153.733 97.1299C155.642 99.4056 155.356 102.808 153.094 104.729C152.089 105.583 150.862 106 149.642 106Z" fill="white"/>
</g>
<defs>
<clipPath id="clip0_14_1071">
<rect width="155" height="106" fill="white"/>
</clipPath>
</defs>
</svg>
