<svg width="98" height="137" viewBox="0 0 98 137" fill="none" xmlns="http://www.w3.org/2000/svg">
<g clip-path="url(#clip0_14_1077)">
<path d="M49 137C47.8789 137 46.7552 136.608 45.8545 135.822C45.3865 135.414 34.263 125.668 23.0198 110.194C16.3859 101.063 11.0881 91.8175 7.27871 82.7163C2.44891 71.1806 0 59.8299 0 48.9824C0 21.9724 21.9803 0 49 0C76.0197 0 98 21.9724 98 48.9824C98 59.8489 95.5511 71.2105 90.7213 82.7516C86.9119 91.8556 81.6141 101.101 74.9802 110.227C63.737 125.693 52.6108 135.42 52.1428 135.828C51.2421 136.611 50.1211 137 49 137ZM49 9.57724C27.2645 9.57724 9.58069 27.2548 9.58069 48.9824C9.58069 84.2449 39.1608 116.048 49.0054 125.652C52.9944 121.773 60.216 114.271 67.3587 104.419C76.9666 91.1647 88.4193 70.7862 88.4193 48.9824C88.4193 27.1786 70.7355 9.57724 49 9.57724Z" fill="white"/>
<path d="M49 74.3114C35.2317 74.3114 24.0293 63.113 24.0293 49.3496C24.0293 35.5862 35.2317 24.3878 49 24.3878C62.7684 24.3878 73.9708 35.5862 73.9708 49.3496C73.9708 63.113 62.7684 74.3114 49 74.3114ZM49 33.9651C40.5159 33.9651 33.61 40.8658 33.61 49.3496C33.61 57.8334 40.5132 64.7341 49 64.7341C57.4869 64.7341 64.3901 57.8334 64.3901 49.3496C64.3901 40.8658 57.4869 33.9651 49 33.9651Z" fill="white"/>
</g>
<defs>
<clipPath id="clip0_14_1077">
<rect width="98" height="137" fill="white"/>
</clipPath>
</defs>
</svg>
