<svg width="172" height="142" viewBox="0 0 172 142" fill="none" xmlns="http://www.w3.org/2000/svg">
<path d="M65.3245 132.34L65.3223 132.35C63.1213 132.35 61.0207 131.407 59.5385 129.753C50.6182 119.8 43.8082 107.214 39.8404 93.3536L39.8403 93.3532C36.0788 80.1928 35.1541 66.5149 37.2846 54.8234L37.2846 54.8233C39.0523 45.1333 42.7647 37.4138 47.9134 33.2665C51.8597 30.0829 55.7828 28.5537 60.2277 28.5537C64.2923 28.5537 68.2782 29.8863 71.9534 31.1149L72.0561 31.1493L72.0569 31.1495C76.3187 32.5782 80.5715 33.9882 85.5257 34.0889H85.5611C90.5153 33.9882 94.7778 32.578 99.0293 31.1497L99.0307 31.1493L99.1334 31.1149C102.809 29.8863 106.794 28.5537 110.859 28.5537C115.304 28.5537 119.228 30.083 123.165 33.2675L65.3245 132.34ZM65.3245 132.34C65.745 132.339 66.1833 132.308 66.6191 132.233C69.289 131.783 71.5028 130.018 72.5586 127.517L72.5589 127.517C74.4449 123.041 75.964 118.966 77.076 115.416L77.0763 115.415C78.2409 111.684 81.6371 109.184 85.5249 109.184C87.4291 109.184 89.2362 109.777 90.7646 110.907L90.7675 110.91C92.296 112.031 93.4086 113.587 93.9832 115.416C95.105 119.015 96.6336 123.081 98.5 127.516L98.5011 127.519C99.5571 130.009 101.78 131.784 104.442 132.233L104.453 132.235L104.463 132.237C104.874 132.297 105.313 132.34 105.755 132.34C107.954 132.34 110.065 131.399 111.539 129.752C112.84 128.3 114.122 126.763 115.348 125.178C115.348 125.178 115.348 125.178 115.348 125.178L115.604 124.848L115.949 125.075C115.949 125.075 115.949 125.075 115.949 125.075C120.301 127.941 125.356 129.452 130.553 129.452C145.305 129.452 157.294 117.358 157.294 102.509C157.294 96.105 155.029 89.8932 150.909 85.0242C146.818 80.1855 141.152 76.9613 134.964 75.9247L65.3245 132.34ZM110.13 119.869C110.556 120.377 111.018 120.88 111.539 121.415L111.542 121.418L111.831 121.712L111.582 122.038C110.377 123.611 109.145 125.091 107.924 126.451L107.922 126.453C107.363 127.079 106.609 127.414 105.774 127.414C105.596 127.414 105.433 127.4 105.281 127.374L105.273 127.372L105.264 127.371C104.777 127.294 103.608 126.953 103.034 125.593L103.033 125.593C101.212 121.282 99.7447 117.352 98.6748 113.933L98.6738 113.93C97.7786 111.103 96.0542 108.68 93.6814 106.931C91.3192 105.191 88.5179 104.266 85.5815 104.258L85.5804 104.248C79.5463 104.248 74.271 108.142 72.4584 113.923C71.3978 117.305 69.9305 121.225 68.0988 125.586C67.5261 126.949 66.3549 127.285 65.8455 127.373L65.8431 127.374C65.6901 127.4 65.5261 127.414 65.3593 127.414C64.5244 127.414 63.7697 127.079 63.2112 126.453L63.2098 126.452C46.593 107.917 37.9428 78.7881 42.1462 55.7037L42.1463 55.7032C43.7186 47.0428 47.0185 40.3253 51.018 37.0971L51.0181 37.097C54.124 34.5893 57.2273 33.4704 60.3294 33.4704C63.5015 33.4704 66.6594 34.5151 70.5435 35.8136L110.896 119.226M110.13 119.869L110.896 119.226M110.13 119.869C110.13 119.87 110.131 119.87 110.131 119.87L110.896 119.226M110.13 119.869C109.255 118.828 109.401 117.282 110.419 116.409M110.896 119.226C110.378 118.611 110.461 117.689 111.072 117.167M110.419 116.409C110.418 116.41 110.417 116.411 110.416 116.412L111.072 117.167M110.419 116.409C110.99 115.915 111.613 115.822 112.006 115.822C112.724 115.822 113.414 116.137 113.884 116.705L111.072 117.167M110.419 116.409C110.42 116.408 110.421 116.408 110.422 116.407L111.072 117.167M134.962 75.9244L134.553 75.8552L134.591 75.4248C135.236 68.1973 134.966 61.2573 133.793 54.8233L133.793 54.8231C132.025 45.1425 128.313 37.4241 123.166 33.2677L134.962 75.9244Z" fill="white" stroke="white" stroke-width="2"/>
<path d="M71.1419 64.4491L71.1276 64.4471C71.0008 64.4283 70.8475 64.3986 70.696 64.3538C70.5796 64.3194 70.4535 64.2774 70.3386 64.2349C70.313 64.2254 70.2878 64.2149 70.2631 64.2034C70.2611 64.2025 70.259 64.2015 70.2569 64.2005C70.167 64.1587 70.0039 64.0828 69.8513 63.9707C69.7283 63.8854 69.6168 63.7857 69.5339 63.7069C69.5202 63.6939 69.5069 63.6805 69.494 63.6668C69.4164 63.5841 69.3256 63.4777 69.2442 63.3557C69.2354 63.3425 69.2269 63.3291 69.2187 63.3155C69.1541 63.208 69.0777 63.0654 69.0235 62.8853M71.1419 64.4491L69.0235 62.8853M71.1419 64.4491C71.2477 64.4632 71.3527 64.4721 71.4606 64.4762C71.5061 64.4825 71.5525 64.4858 71.5997 64.4858C71.7493 64.4858 71.8984 64.4758 72.0469 64.4561C72.1922 64.4367 72.3494 64.4063 72.5034 64.3608C72.5076 64.3596 72.5119 64.3583 72.5165 64.3569C72.6049 64.3308 72.7537 64.2869 72.909 64.218L72.9257 64.2104C73.0735 64.1416 73.2019 64.0683 73.2992 64.0036C73.3167 63.9919 73.3338 63.9797 73.3506 63.967C73.3542 63.9642 73.3581 63.9612 73.3622 63.9581C73.4287 63.9077 73.5498 63.8158 73.6619 63.7039C73.6695 63.6963 73.677 63.6886 73.6843 63.6808C73.7619 63.5981 73.8527 63.4916 73.9341 63.3697C73.9505 63.3451 73.9659 63.3198 73.98 63.2938C74.0273 63.2073 74.102 63.0679 74.1548 62.8923C74.1572 62.8843 74.1595 62.8762 74.1617 62.8681C74.203 62.717 74.2286 62.5511 74.2286 62.3877C74.2286 62.2278 74.204 62.0539 74.1548 61.8901C74.1102 61.7417 74.0428 61.5873 73.9475 61.44C73.8575 61.2947 73.7562 61.1773 73.6612 61.0814C73.5451 60.9606 73.4171 60.8658 73.3237 60.8024C73.1758 60.6943 73.0143 60.6161 72.9433 60.5823C72.9354 60.5786 72.9275 60.5749 72.9195 60.5714M71.1419 64.4491L72.9195 60.5714M69.0235 62.8853C68.9743 62.7215 68.9497 62.5476 68.9497 62.3877C68.9497 62.2278 68.9743 62.0539 69.0235 61.8901C69.0681 61.742 69.1353 61.5879 69.2303 61.4409C69.3022 61.3241 69.4044 61.1838 69.5447 61.054C69.6311 60.9689 69.7406 60.8711 69.8791 60.7789C69.9828 60.7099 70.1323 60.6193 70.3187 60.548C70.4435 60.4972 70.5782 60.4533 70.6855 60.4216C70.8394 60.3761 70.9966 60.3457 71.1419 60.3264C71.2904 60.3066 71.4396 60.2966 71.5892 60.2966C71.7368 60.2966 71.884 60.3063 72.0305 60.3256C72.1976 60.3461 72.3413 60.3775 72.4795 60.4177C72.6181 60.4552 72.7702 60.5052 72.9195 60.5714M69.0235 62.8853L72.9195 60.5714" fill="white" stroke="white" stroke-width="2" stroke-linejoin="round"/>
<path d="M97.5744 64.3177C97.4719 64.276 97.336 64.2123 97.208 64.1239C97.1249 64.0683 96.9998 63.9791 96.8768 63.8457C96.4997 63.4599 96.2739 62.9384 96.2739 62.3842C96.2739 62.2536 96.2878 62.1209 96.3128 61.9937C96.3383 61.8577 96.378 61.7194 96.4368 61.5835C96.4831 61.4708 96.5444 61.3473 96.6247 61.2255C96.7128 61.0884 96.8142 60.9778 96.8838 60.9085C96.9672 60.8256 97.0722 60.7309 97.2093 60.6438C97.3312 60.5642 97.4547 60.5036 97.5674 60.4578C97.7024 60.3998 97.8378 60.3614 97.9615 60.3368M97.5744 64.3177L97.9615 60.3368M97.5744 64.3177C97.6934 64.3687 97.8126 64.4046 97.9239 64.4293M97.5744 64.3177L97.9239 64.4293M97.9615 60.3368C98.0946 60.3103 98.23 60.2966 98.3669 60.2966C98.5038 60.2966 98.6392 60.3103 98.7723 60.3368L98.5771 61.3175L98.7723 60.3368C98.9052 60.3632 99.0336 60.402 99.1571 60.4512L99.1745 60.4581L99.1917 60.4657C99.3077 60.517 99.4126 60.5759 99.4976 60.6287L99.51 60.6365L99.5222 60.6446C99.6414 60.7236 99.7408 60.8104 99.7923 60.8554C99.7955 60.8581 99.7985 60.8607 99.8013 60.8632L99.8264 60.885L99.8499 60.9085C99.9598 61.0178 100.045 61.1377 100.096 61.2093L100.111 61.2307L100.125 61.2528C100.177 61.3356 100.241 61.4473 100.297 61.5828C100.354 61.7147 100.392 61.8469 100.417 61.9684C100.449 62.114 100.46 62.2615 100.46 62.3842C100.46 62.9372 100.234 63.4778 99.8429 63.867M97.9615 60.3368L99.8429 63.867M99.8429 63.867C99.7387 63.9707 99.6245 64.0564 99.5675 64.099L99.5453 64.1155L99.5222 64.1309C99.4166 64.2009 99.3042 64.2639 99.1847 64.3167L99.1675 64.3243L99.1501 64.3312C99.0487 64.3716 98.9275 64.4139 98.7821 64.4437M99.8429 63.867L98.7821 64.4437M98.7821 64.4437C98.6342 64.4753 98.486 64.4858 98.3599 64.4858L98.3583 64.479M98.7821 64.4437L98.3583 64.479M98.3583 64.479C98.2988 64.4797 98.119 64.4806 97.9239 64.4293M98.3583 64.479L97.9239 64.4293" fill="white" stroke="white" stroke-width="2"/>
<path d="M73.2583 79.1406L73.2583 79.1406L73.2623 79.1435C76.705 81.6632 80.7543 83.0307 84.9929 83.0822L85.0147 83.0936H85.2608C89.5899 83.0936 93.7312 81.7222 97.242 79.1424L97.2445 79.1406C97.7774 78.7464 98.1321 78.159 98.2393 77.5014C98.3441 76.8582 98.2118 76.1845 97.8369 75.628L97.8369 75.628L97.8338 75.6235C97.3758 74.9518 96.6226 74.5261 95.7933 74.5261C95.2897 74.5261 94.7879 74.6768 94.3535 74.9968C91.6812 76.962 88.5377 77.9972 85.2514 77.9972C81.9649 77.9972 78.8213 76.962 76.149 74.9966L76.1392 74.9894L76.1291 74.9824C75.7223 74.6983 75.2332 74.5261 74.7094 74.5261C73.8785 74.5261 73.1175 74.9457 72.663 75.6323C72.2903 76.1879 72.1589 76.8598 72.2635 77.5014C72.3707 78.159 72.7253 78.7464 73.2583 79.1406Z" fill="white" stroke="white" stroke-width="2"/>
<path d="M26.2604 42.2701L26.2604 42.2701L26.2627 42.2791C26.6389 43.7632 27.9794 44.7832 29.4959 44.7832H29.5146C31.031 44.7832 32.3714 43.7633 32.7477 42.2794C34.1913 36.6231 38.5794 32.1564 44.2138 30.5984H44.261L44.3903 30.5631C45.8856 30.1549 46.9176 28.787 46.9044 27.2442L46.9042 27.2358C46.8779 25.6887 45.8149 24.3525 44.3082 23.9777L44.26 23.964L44.2402 23.9584L44.2201 23.9535C38.6479 22.6156 34.3109 18.3511 32.897 12.8203L32.8971 12.8203L32.8945 12.8108L32.8115 12.4986C32.4241 10.9934 31.0598 9.9458 29.5052 9.9458C27.9473 9.9458 26.587 10.9962 26.1904 12.4958L26.1572 12.6215V12.6696C24.6935 18.1824 20.3868 22.4689 14.8497 23.9259H14.8057L14.685 23.9565C13.1765 24.3383 12.1155 25.6949 12.1155 27.2528C12.1155 28.8103 13.1747 30.1621 14.6656 30.5559L14.7911 30.5891H14.8413C20.4247 32.0472 24.7618 36.4005 26.1869 41.9685L26.2604 42.2701ZM29.4597 17.8539L29.8685 18.6138C31.7773 22.1673 34.681 25.0565 38.2626 26.9459L38.2631 26.9462L39.0059 27.3375L38.2658 27.7449C38.2657 27.745 38.2656 27.745 38.2656 27.745C34.7513 29.6789 31.8748 32.5509 29.9315 36.0467L29.931 36.0477L29.5166 36.7953L29.1135 36.0492C29.1133 36.0488 29.113 36.0484 29.1128 36.048C29.1128 36.048 29.1128 36.048 29.1128 36.0479C27.1949 32.4865 24.2843 29.5919 20.7194 27.6669C20.7193 27.6668 20.7192 27.6667 20.719 27.6667L19.9707 27.2621L20.7175 26.8584C20.7178 26.8582 20.7182 26.8581 20.7185 26.8579C24.2453 24.9614 27.1144 22.1071 29.04 18.6106L29.0445 18.6118L29.4597 17.8539Z" fill="white" stroke="white" stroke-width="2"/>
<path d="M143.484 55.6867L143.483 55.6843L143.429 55.4765C143.429 55.4757 143.428 55.4749 143.428 55.4741C142.482 51.957 139.594 49.1875 135.835 48.2852L143.484 55.6867ZM143.484 55.6867C143.842 57.0308 145.089 57.9143 146.457 57.9183L143.484 55.6867ZM148.474 55.4296C148.241 56.304 147.415 56.9143 146.467 56.9183V56.9183V57.9183C147.834 57.9143 149.082 57.0311 149.44 55.6875L148.474 55.4296ZM148.474 55.4296L149.44 55.6867M148.474 55.4296L149.44 55.6867M149.44 55.6867C150.396 52.1054 153.335 49.2614 157.148 48.2908C158.514 47.9442 159.494 46.7428 159.48 45.3266L159.48 45.326C159.466 43.9762 158.537 42.8575 157.289 42.4753L157.145 42.4314H156.996H156.726V42.3638M149.44 55.6867L156.726 42.3638M156.726 42.3638L156.041 42.1366M156.726 42.3638L156.041 42.1366M156.041 42.1366C152.815 41.0673 150.385 38.5513 149.543 35.4121C149.543 35.4114 149.542 35.4107 149.542 35.41L149.488 35.204C149.488 35.2035 149.488 35.2031 149.488 35.2027C149.13 33.8339 147.856 32.9321 146.457 32.9321C145.045 32.9321 143.784 33.8545 143.419 35.2249C142.484 38.7286 139.581 41.5017 135.808 42.4144C134.444 42.7366 133.435 43.9233 133.435 45.3455C133.435 46.7813 134.467 47.9571 135.835 48.2851L156.041 42.1366ZM146.033 41.0122L146.386 40.5119L146.377 40.4955L146.422 40.4321L146.822 41.0071L146.823 41.0088C147.965 42.6447 149.418 44.0231 151.137 45.0952L151.138 45.096L151.633 45.4038L151.144 45.7182L151.143 45.7188C149.471 46.7962 148.033 48.1601 146.893 49.764L146.892 49.7656L146.494 50.3282L146.103 49.7646L146.101 49.7619C144.96 48.1275 143.509 46.7412 141.783 45.6518L141.782 45.6512L141.296 45.3455L141.782 45.0397L141.785 45.0378C143.468 43.969 144.9 42.6209 146.033 41.0122Z" fill="white" stroke="white" stroke-width="2"/>
<path d="M126.664 107.919L126.157 107.48L126.157 107.479C122.476 104.29 117.428 102.979 116.833 102.837C116.66 102.794 116.456 102.761 116.237 102.761C115.101 102.761 114.121 103.536 113.838 104.626L113.838 104.626L113.837 104.63C113.499 105.954 114.319 107.302 115.646 107.63C115.654 107.632 115.663 107.634 115.671 107.636C115.67 107.636 115.673 107.637 115.68 107.638C115.831 107.679 117.829 108.213 119.962 109.292C122.256 110.451 124.363 112.068 124.905 114.084L124.905 114.084L124.909 114.096C125.182 115.063 126.011 115.782 127.012 115.896C127.096 115.919 127.184 115.931 127.273 115.931H127.292C128.399 115.931 129.382 115.197 129.685 114.124L129.685 114.124C129.685 114.123 129.686 114.121 129.686 114.12C129.841 113.611 131.07 109.579 133.43 105.387C135.958 100.894 139.586 96.5822 144.265 95.8598C144.921 95.7634 145.495 95.4117 145.886 94.8857L145.897 94.87C146.274 94.3417 146.432 93.6881 146.338 93.0475L126.664 107.919ZM126.664 107.919L126.925 107.32L126.926 107.318C128.115 104.605 130.034 100.889 132.742 97.6743C135.445 94.4647 139.014 91.6638 143.511 90.9751C143.52 90.9737 143.53 90.9723 143.539 90.9712L143.551 90.9696C143.62 90.961 143.75 90.9448 143.889 90.9448C145.092 90.9448 146.159 91.8298 146.338 93.0467L126.664 107.919Z" fill="white" stroke="white" stroke-width="2" stroke-linejoin="round"/>
<path d="M107.919 110.065L107.919 110.065C107.856 110.12 107.793 110.176 107.729 110.218C107.666 110.26 107.608 110.294 107.543 110.323L107.919 110.065ZM107.919 110.065C107.982 110.002 108.035 109.939 108.077 109.869C108.119 109.807 108.151 109.737 108.172 109.667L107.919 110.065ZM107.93 108.852C107.982 108.907 108.035 108.97 108.077 109.04C108.119 109.103 108.151 109.172 108.172 109.249L107.93 108.852ZM107.93 108.852C107.866 108.789 107.793 108.733 107.719 108.684L107.93 108.852ZM106.57 111.553C106.64 111.553 106.71 111.545 106.777 111.531C106.847 111.526 106.917 111.519 106.986 111.509C107.121 111.492 107.278 111.466 107.43 111.424C107.589 111.386 107.733 111.332 107.862 111.274C108.034 111.206 108.167 111.127 108.281 111.052C108.404 110.971 108.514 110.873 108.569 110.824C108.573 110.821 108.577 110.818 108.58 110.815C108.595 110.802 108.609 110.788 108.623 110.775C108.721 110.677 108.827 110.557 108.921 110.407C109.014 110.264 109.08 110.115 109.125 109.97C109.183 109.791 109.204 109.61 109.204 109.458C109.204 109.31 109.184 109.134 109.129 108.959C109.083 108.8 109.014 108.646 108.921 108.502C108.83 108.358 108.731 108.244 108.656 108.165C108.649 108.157 108.641 108.149 108.634 108.142C108.516 108.025 108.393 107.932 108.29 107.863C108.14 107.757 107.964 107.674 107.92 107.653C107.915 107.651 107.912 107.65 107.91 107.649C107.744 107.567 107.574 107.517 107.49 107.492C107.484 107.491 107.478 107.489 107.474 107.488C107.319 107.442 107.16 107.412 107.001 107.392C106.854 107.373 106.707 107.364 106.559 107.364C106.409 107.364 106.26 107.373 106.112 107.393C105.963 107.413 105.816 107.442 105.671 107.48C105.662 107.483 105.653 107.485 105.644 107.488C105.509 107.528 105.38 107.575 105.27 107.621L105.249 107.63C105.092 107.699 104.958 107.777 104.848 107.85C104.83 107.862 104.813 107.874 104.796 107.886L104.795 107.887C104.725 107.94 104.622 108.018 104.513 108.124C104.364 108.261 104.268 108.405 104.228 108.464C104.226 108.468 104.223 108.472 104.221 108.475C104.212 108.488 104.204 108.502 104.196 108.515C104.104 108.666 104.045 108.815 104.009 108.923C104.003 108.941 103.997 108.959 103.992 108.977C103.951 109.128 103.925 109.294 103.925 109.458C103.925 109.618 103.95 109.793 103.999 109.957C104.047 110.115 104.115 110.261 104.196 110.394C104.204 110.408 104.212 110.421 104.221 110.434C104.304 110.557 104.395 110.662 104.469 110.744L104.483 110.759C104.602 110.884 104.726 110.977 104.834 111.05C104.991 111.164 105.155 111.238 105.249 111.279L105.249 111.279C105.38 111.337 105.52 111.39 105.679 111.432C105.829 111.475 105.981 111.504 106.122 111.523C106.271 111.543 106.42 111.553 106.57 111.553Z" fill="white" stroke="white" stroke-width="2" stroke-linejoin="round"/>
</svg>
