<svg width="163" height="175" viewBox="0 0 163 175" fill="none" xmlns="http://www.w3.org/2000/svg">
<path d="M31.1387 101H31.3319L31.3706 100.984C31.4726 100.978 31.5719 100.967 31.6732 100.953L31.6732 100.953L31.6835 100.951C32.3664 100.844 33.0003 100.515 33.4383 99.9794L33.4452 99.971L33.4519 99.9625C33.8612 99.4397 34.0808 98.7361 33.8837 98.0038C31.1368 87.3238 32.8169 79.0285 35.1626 74.9079L35.1626 74.9079L35.1671 74.8999C35.509 74.2863 35.5632 73.5478 35.2413 72.8758C34.9436 72.2545 34.393 71.7919 33.7367 71.5562L33.7368 71.5561L33.7241 71.5518C33.3888 71.4364 33.0265 71.3684 32.653 71.3684C31.6843 71.3684 30.6461 71.8218 30.1412 72.725C28.7031 75.2548 24.5899 84.2688 28.4151 99.0984L28.4155 99.0998C28.7326 100.322 29.9686 101 31.1387 101ZM31.1387 100C30.2897 100 29.5555 99.5118 29.3834 98.8487L31.1387 100Z" fill="white" stroke="white" stroke-width="2"/>
<path d="M33.1344 111.526H34.1344V111.234C34.1378 111.232 34.1412 111.23 34.1446 111.228C34.3426 111.119 34.4936 110.978 34.6012 110.865L34.6012 110.865L34.6082 110.858C34.6779 110.784 34.7905 110.661 34.896 110.504C35.2704 109.946 35.4553 109.227 35.4553 108.546C35.4553 108.375 35.4438 108.205 35.421 108.035C35.3992 107.872 35.3655 107.699 35.316 107.53C35.2677 107.353 35.2098 107.2 35.1573 107.075L35.1439 107.043L35.1283 107.012C35.0809 106.918 35.0033 106.766 34.9123 106.626C34.7993 106.44 34.6776 106.308 34.6082 106.234L34.5963 106.222L34.5841 106.21C34.4453 106.072 34.3029 105.968 34.1944 105.896L34.1746 105.883L34.1542 105.871C34.0243 105.794 33.8847 105.728 33.7356 105.678C33.4685 105.573 33.2174 105.577 33.154 105.579C33.1492 105.579 33.1454 105.579 33.1428 105.579C32.368 105.579 31.7418 106.039 31.3642 106.602C31.3621 106.605 31.3598 106.608 31.3575 106.611C31.2993 106.698 31.1997 106.846 31.1128 107.051C31.0322 107.221 30.9818 107.391 30.9538 107.485C30.9518 107.492 30.95 107.498 30.9483 107.504C30.8935 107.687 30.8596 107.883 30.8392 108.035C30.8161 108.207 30.8049 108.39 30.8049 108.546C30.8049 109.227 30.9899 109.946 31.3642 110.504C31.7391 111.062 32.3641 111.526 33.1344 111.526Z" fill="white" stroke="white" stroke-width="2"/>
<path d="M108.992 23.617C108.992 24.4219 109.465 25.0417 110.008 25.4179C110.555 25.7969 111.256 25.9999 111.98 25.9999C112.711 25.9999 113.413 25.794 113.96 25.4122C114.501 25.0339 114.968 24.4144 114.968 23.617V15.8566C114.968 15.0568 114.503 14.4362 113.958 14.0568C113.41 13.6758 112.708 13.4736 111.98 13.4736C111.249 13.4736 110.546 13.6796 110 14.0613C109.458 14.4397 108.992 15.0592 108.992 15.8566V23.617Z" fill="white" stroke="white" stroke-width="2"/>
<path d="M131.825 39.1479L131.825 39.1479L131.829 39.1553C132.256 39.9415 133.072 40.4737 134.003 40.4737C134.445 40.4737 134.861 40.3518 135.226 40.1436L135.233 40.1396L135.24 40.1354L145.527 34.0481L145.527 34.0481L145.534 34.0438C146.712 33.3333 147.107 31.7899 146.468 30.589L146.468 30.589L146.464 30.5816C146.037 29.7954 145.221 29.2632 144.29 29.2632C143.847 29.2632 143.432 29.385 143.067 29.5933L143.059 29.5973L143.052 29.6015L132.766 35.6888L132.766 35.6888L132.758 35.6931C131.58 36.4036 131.186 37.947 131.825 39.1479Z" fill="white" stroke="white" stroke-width="2"/>
<path d="M148.096 64.1539L148.141 64.1578H148.185H148.185H148.185H148.186H148.186H148.186H148.187H148.187H148.187H148.187H148.188H148.188H148.188H148.188H148.189H148.189H148.189H148.19H148.19H148.19H148.19H148.191H148.191H148.191H148.192H148.192H148.192H148.192H148.193H148.193H148.193H148.194H148.194H148.194H148.194H148.195H148.195H148.195H148.196H148.196H148.196H148.196H148.197H148.197H148.197H148.198H148.198H148.198H148.199H148.199H148.199H148.199H148.2H148.2H148.2H148.201H148.201H148.201H148.201H148.202H148.202H148.202H148.203H148.203H148.203H148.204H148.204H148.204H148.205H148.205H148.205H148.205H148.206H148.206H148.206H148.207H148.207H148.207H148.208H148.208H148.208H148.208H148.209H148.209H148.209H148.21H148.21H148.21H148.211H148.211H148.211H148.212H148.212H148.212H148.212H148.213H148.213H148.213H148.214H148.214H148.214H148.215H148.215H148.215H148.216H148.216H148.216H148.217H148.217H148.217H148.217H148.218H148.218H148.218H148.219H148.219H148.219H148.22H148.22H148.22H148.221H148.221H148.221H148.222H148.222H148.222H148.222H148.223H148.223H148.223H148.224H148.224H148.224H148.225H148.225H148.225H148.226H148.226H148.226H148.227H148.227H148.227H148.227H148.228H148.228H148.228H148.229H148.229H148.229H148.23H148.23H148.23H148.231H148.231H148.231H148.232H148.232H148.232H148.233H148.233H148.233H148.233H148.234H148.234H148.234H148.235H148.235H148.235H148.236H148.236H148.236H148.237H148.237H148.237H148.238H148.238H148.238H148.238H148.239H148.239H148.239H148.24H148.24H148.24H148.241H148.241H148.241H148.242H148.242H148.242H148.242H148.243H148.243H148.243H148.244H148.244H148.244H148.245H148.245H148.245H148.246H148.246H148.246H148.246H148.247H148.247H148.247H148.248H148.248H148.248H148.249H148.249H148.249H148.25H148.25H148.25H148.25H148.251H148.251H148.251H148.252H148.252H148.252H148.253H148.253H148.253H148.253H148.254H148.254H148.254H148.255H148.255H148.255H148.256H148.256H148.256H148.256H148.257H148.257H148.257H148.258H148.258H148.258H148.258H148.259H148.259H148.259H148.26H148.26H148.26H148.26H148.261H148.261H148.261H148.262H148.262H148.262H148.262H148.263H148.263H148.263H148.264H148.264H148.264H148.264H148.265H148.265H148.265H148.266H148.266H148.266H148.266H148.267H148.267H148.267H148.267H148.268H148.268H148.268H148.269H148.269H148.269H148.269H148.27H148.27H148.27H148.27H148.271H148.271H148.271H148.271H148.272H148.272H148.272H148.273H148.273H148.273H148.273H148.274H148.274H148.274H148.274H148.275H148.275H148.275H148.275H148.276H148.276H148.276H148.276H148.277H148.277H148.277H148.277H148.278H148.278H148.278H148.278H148.279H148.279H148.279H148.279H148.28H148.28H148.28H148.28H148.28H148.281H148.281H148.281H148.281H148.282H148.282H148.282H148.282H148.283H148.283H148.283H148.283H148.283H148.284H148.284H148.284H148.284H148.285H148.285H148.285H148.285H148.285H148.286H148.286H148.286H148.286H148.287H148.287H148.287H148.287H148.287H148.288H148.288H148.288H148.288H148.288H148.289H148.289H148.289H148.289H148.289H148.29H148.29H148.29H148.29H148.29H148.291H148.291H148.291H148.291H148.291H148.291H148.292H148.292H148.292H148.292H148.292H148.293H148.293H148.293H148.293H148.293H148.293H148.294H148.294H148.294H148.294H148.294H148.294H148.295H148.295H148.295H148.295H148.295H148.295H148.296H148.296H148.296H148.296H148.296H148.296H148.297H148.297H148.297H148.297H148.297H148.297H148.297H148.298H148.298H148.298H148.298H148.298H148.298H148.298H148.299H148.299H148.299H148.299H148.299H148.299H148.299H148.299H148.3H148.3H148.3H148.3H148.3H148.3H148.3H148.3H148.301H148.301H148.301H148.301H148.301H148.301H148.301H148.301H148.301H148.301H148.302H148.302H148.302H148.302H148.302H148.302H148.302H148.302H148.302H148.302H148.302H148.303H148.303H148.303H148.303H148.303H148.303H148.303H148.303H148.303H148.303H148.303H148.303H148.303H148.304H148.304H148.304H148.304H148.304H148.304H148.304H148.304H148.304H148.304H148.304H148.304H148.304H148.304H148.304H148.304H148.304H148.304H148.304H148.304H148.304H148.305H148.305H148.305H148.305H148.305H148.305H148.305H148.305H148.305H148.305H148.305H148.305H148.305H148.305H148.305H148.305H148.305C149.649 64.1578 150.641 63.0452 150.741 61.7906L150.741 61.7906L150.742 61.7769C150.785 61.1215 150.598 60.4763 150.193 59.9539C149.789 59.4326 149.191 59.0732 148.499 59.0175L139.473 58.2144L139.428 58.2104H139.384H139.384H139.384H139.383H139.383H139.383H139.383H139.383H139.382H139.382H139.382H139.382H139.381H139.381H139.381H139.381H139.381H139.38H139.38H139.38H139.38H139.379H139.379H139.379H139.379H139.379H139.378H139.378H139.378H139.378H139.377H139.377H139.377H139.377H139.377H139.376H139.376H139.376H139.376H139.375H139.375H139.375H139.375H139.375H139.374H139.374H139.374H139.374H139.373H139.373H139.373H139.373H139.373H139.372H139.372H139.372H139.372H139.371H139.371H139.371H139.371H139.37H139.37H139.37H139.37H139.37H139.369H139.369H139.369H139.369H139.368H139.368H139.368H139.368H139.367H139.367H139.367H139.367H139.367H139.366H139.366H139.366H139.366H139.365H139.365H139.365H139.365H139.365H139.364H139.364H139.364H139.364H139.363H139.363H139.363H139.363H139.362H139.362H139.362H139.362H139.361H139.361H139.361H139.361H139.361H139.36H139.36H139.36H139.36H139.359H139.359H139.359H139.359H139.358H139.358H139.358H139.358H139.357H139.357H139.357H139.357H139.357H139.356H139.356H139.356H139.356H139.355H139.355H139.355H139.355H139.354H139.354H139.354H139.354H139.353H139.353H139.353H139.353H139.353H139.352H139.352H139.352H139.352H139.351H139.351H139.351H139.351H139.35H139.35H139.35H139.35H139.349H139.349H139.349H139.349H139.348H139.348H139.348H139.348H139.348H139.347H139.347H139.347H139.347H139.346H139.346H139.346H139.346H139.345H139.345H139.345H139.345H139.344H139.344H139.344H139.344H139.343H139.343H139.343H139.343H139.342H139.342H139.342H139.342H139.342H139.341H139.341H139.341H139.341H139.34H139.34H139.34H139.34H139.339H139.339H139.339H139.339H139.338H139.338H139.338H139.338H139.337H139.337H139.337H139.337H139.336H139.336H139.336H139.336H139.335H139.335H139.335H139.335H139.335H139.334H139.334H139.334H139.334H139.333H139.333H139.333H139.333H139.332H139.332H139.332H139.332H139.331H139.331H139.331H139.331H139.33H139.33H139.33H139.33H139.329H139.329H139.329H139.329H139.328H139.328H139.328H139.328H139.327H139.327H139.327H139.327H139.326H139.326H139.326H139.326H139.326H139.325H139.325H139.325H139.325H139.324H139.324H139.324H139.324H139.323H139.323H139.323H139.323H139.322H139.322H139.322H139.322H139.321H139.321H139.321H139.321H139.32H139.32H139.32H139.32H139.319H139.319H139.319H139.319H139.318H139.318H139.318H139.318H139.317H139.317H139.317H139.317H139.317H139.316H139.316H139.316H139.316H139.315H139.315H139.315H139.315H139.314H139.314H139.314H139.314H139.313H139.313H139.313H139.313H139.312H139.312H139.312H139.312H139.311H139.311H139.311H139.311H139.31H139.31H139.31H139.31H139.309H139.309H139.309H139.309H139.309H139.308H139.308H139.308H139.308H139.307H139.307H139.307H139.307H139.306H139.306H139.306H139.306H139.305H139.305H139.305H139.305H139.304H139.304H139.304H139.304H139.303H139.303H139.303H139.303H139.303H139.302H139.302H139.302H139.302H139.301H139.301H139.301H139.301H139.3H139.3H139.3H139.3H139.299H139.299H139.299H139.299H139.298H139.298H139.298H139.298H139.297H139.297H139.297H139.297H139.297H139.296H139.296H139.296H139.296H139.295H139.295H139.295H139.295H139.294H139.294H139.294H139.294H139.293H139.293H139.293H139.293H139.292H139.292H139.292H139.292H139.292H139.291H139.291H139.291H139.291H139.29H139.29H139.29H139.29H139.289H139.289H139.289H139.289H139.288H139.288H139.288H139.288H139.288H139.287H139.287H139.287H139.287H139.286H139.286H139.286H139.286H139.285H139.285H139.285H139.285H139.285H139.284H139.284H139.284H139.284H139.283H139.283H139.283H139.283H139.282H139.282H139.282H139.282H139.282H139.281H139.281H139.281H139.281H139.28H139.28H139.28H139.28H139.279H139.279H139.279H139.279H139.279H139.278H139.278H139.278H139.278H139.277H139.277H139.277H139.277H139.277H139.276H139.276H139.276H139.276H139.275H139.275H139.275H139.275H139.274H139.274H139.274H139.274H139.274H139.273H139.273H139.273H139.273H139.272H139.272H139.272H139.272H139.272H139.271H139.271H139.271H139.271H139.27H139.27H139.27H139.27H139.27H139.269H139.269H139.269H139.269H139.268H139.268H139.268H139.268H139.268H139.267H139.267H139.267H139.267H139.266H139.266H139.266H139.266H139.266H139.265H139.265H139.265H139.265H139.265H139.264H139.264C137.92 58.2104 136.928 59.3231 136.828 60.5777L136.828 60.5777L136.827 60.5913C136.784 61.2468 136.971 61.892 137.376 62.4144C137.78 62.9356 138.377 63.2951 139.07 63.3508L148.096 64.1539Z" fill="white" stroke="white" stroke-width="2"/>
<mask id="path-6-outside-1_14_986" maskUnits="userSpaceOnUse" x="11.252" y="32.2104" width="124" height="131" fill="black">
<rect fill="white" x="11.252" y="32.2104" width="124" height="131"/>
<path d="M92.807 160.526C92.3758 160.526 91.9352 160.489 91.504 160.415C88.87 159.978 86.6859 158.261 85.636 155.838C83.48 150.805 81.7271 146.191 80.4242 142.134C79.6743 139.775 78.2119 137.751 76.1872 136.284C74.1718 134.827 71.7815 134.047 69.2787 134.047C64.9667 134.047 61.0203 136.377 58.9862 140.128C58.6488 140.75 58.3582 141.428 58.1332 142.124C56.849 146.163 55.0961 150.778 52.9214 155.828C51.8809 158.261 49.6874 159.969 47.0533 160.406C46.6222 160.48 46.1816 160.517 45.7504 160.517C43.585 160.517 41.5134 159.598 40.0511 158.01C29.8243 146.804 22.0065 132.608 17.4508 116.954C13.1482 102.09 12.1077 86.6772 14.5355 73.5489C16.5509 62.6489 20.7691 54.1907 26.4028 49.7249C30.7054 46.3082 35.1111 44.6555 39.8636 44.6555C44.6161 44.6555 48.8531 46.1225 53.1651 47.543C58.1238 49.1771 63.2607 50.8576 69.2599 50.969H69.3162C71.4065 50.9319 73.525 50.6997 75.7935 50.2541L78.54 49.7156L76.534 47.7844C75.3061 46.596 74.6874 44.9712 74.753 43.0772C74.8467 40.3939 76.3184 37.7107 78.5213 36.2252C80.0117 35.2225 84.8111 34.2104 91.1103 34.2104C93.7256 34.2104 96.3034 34.3869 98.7781 34.7211C107.496 35.9281 119.654 39.744 128.024 51.0897C131.38 55.6391 132.946 60.7734 132.421 65.555C131.886 70.5129 129.327 74.6816 125.587 76.6964C125.559 76.715 125.531 76.7242 125.503 76.7428L124.631 77.2163L124.753 78.1912C126.365 91.4773 124.734 106.063 120.038 120.38C115.332 134.734 107.88 147.751 98.5063 158.019C97.0533 159.616 94.9724 160.526 92.807 160.526ZM69.2974 131.141C72.4283 131.141 75.4092 132.106 77.9401 133.935C80.471 135.764 82.2989 138.299 83.2457 141.252C84.5018 145.17 86.2641 149.821 88.3544 154.696C89.0106 156.228 90.3417 157.267 92.0008 157.546C92.2727 157.592 92.5539 157.611 92.8257 157.611C94.1756 157.611 95.4223 157.063 96.3316 156.06C114.864 135.755 124.903 105.571 121.913 79.1661L121.772 77.8941L120.479 77.8755C120.479 77.8755 120.357 77.8755 120.319 77.8662C120.216 77.8662 120.113 77.8569 120 77.8477C119.907 77.8477 119.813 77.8291 119.719 77.8198C119.607 77.8105 119.494 77.792 119.382 77.7827C119.297 77.7734 119.213 77.7548 119.119 77.7455C118.997 77.727 118.894 77.7084 118.791 77.6898C118.698 77.6713 118.604 77.6527 118.51 77.6341C118.398 77.6063 118.294 77.5877 118.191 77.5598C118.116 77.5413 118.051 77.5227 117.985 77.5041L117.854 77.467C117.779 77.4484 117.695 77.4206 117.62 77.402C117.563 77.3834 117.507 77.3649 117.441 77.3463L117.245 77.272C117.188 77.2534 117.123 77.2256 117.066 77.207C117.001 77.1792 116.795 77.0956 116.795 77.0956C116.701 77.0585 116.617 77.0213 116.523 76.9749C116.457 76.9471 116.392 76.9099 116.326 76.8821L116.195 76.8171C116.129 76.7799 116.063 76.7521 115.998 76.7149C115.951 76.6964 115.904 76.6592 115.848 76.6314L115.651 76.52C115.651 76.52 115.557 76.4643 115.52 76.4457C115.454 76.4086 115.398 76.3714 115.342 76.3343L115.164 76.2136C115.164 76.2136 115.089 76.1579 115.042 76.13C114.976 76.0836 114.929 76.0465 114.873 76.0093L114.704 75.8793C114.704 75.8793 114.629 75.8236 114.592 75.7958C114.536 75.7494 114.479 75.6936 114.423 75.6472L114.273 75.5172C114.273 75.5172 114.198 75.4523 114.17 75.4244C114.123 75.378 114.067 75.3223 114.011 75.2666L113.879 75.1366C113.879 75.1366 113.823 75.0809 113.795 75.053C113.729 74.988 113.683 74.923 113.636 74.8673L113.495 74.7095C113.495 74.7095 113.448 74.6538 113.42 74.6259C113.364 74.5517 113.308 74.4774 113.251 74.4031L113.092 74.1896C112.989 74.0503 112.895 73.8925 112.801 73.7346C111.555 71.6085 111.395 69.1759 111.236 66.8177C111.03 63.7631 110.795 61.8133 109.342 60.532C108.564 59.845 107.449 59.4736 106.137 59.4736C104.955 59.4736 103.624 59.7614 102.378 60.2814C101.281 60.7456 100.24 61.3212 99.1343 61.934C97.5689 62.7975 95.966 63.6888 94.1662 64.2458C93.1445 64.5615 92.0196 64.7379 90.9229 64.7379C89.2168 64.7379 86.1047 64.3294 84.3799 61.5626C83.2176 59.7057 83.2176 57.5889 83.2176 55.5463V54.9521C83.2176 54.7571 83.2176 54.5621 83.2082 54.3764V54.3393C83.2082 54.1536 83.1988 53.9772 83.1801 53.8101V53.6615C83.1613 53.5315 83.152 53.3923 83.1332 53.2716V53.0116L82.9832 52.6959L82.4395 51.6003L81.2584 51.9439C76.7684 53.2437 73.0845 53.8472 69.3349 53.9122H69.2599C62.8107 53.8008 57.2052 51.9624 52.2652 50.3376C47.7564 48.8521 43.8662 47.5801 39.9199 47.5801C35.9735 47.5801 32.0927 49.0007 28.2494 52.0367C23.2438 56.0105 19.2974 64.0509 17.4321 74.1153C12.4639 100.929 22.672 134.641 42.2633 156.107C43.182 157.11 44.4287 157.657 45.7691 157.657C46.041 157.657 46.3128 157.639 46.594 157.592C48.2532 157.314 49.5843 156.274 50.2404 154.742C52.3777 149.766 54.0931 145.244 55.3492 141.298C55.5929 140.546 55.9022 139.812 56.2678 139.098L56.3334 138.977L56.3709 138.838C56.9521 136.823 62.4639 119.192 76.3278 119.192C77.134 119.192 77.7995 119.842 77.7995 120.649C77.7995 121.457 77.1433 122.107 76.3278 122.107C71.669 122.107 67.5633 124.558 64.1137 129.395L61.8171 132.617L65.6698 131.651C66.8602 131.354 68.0788 131.206 69.2881 131.206L69.2974 131.141ZM110.392 57.6631C110.542 57.756 110.683 57.8488 110.805 57.9417L110.852 57.9788C111.02 58.1088 111.161 58.2202 111.273 58.3223C113.739 60.4949 113.945 63.5959 114.142 66.5948C114.282 68.7117 114.423 70.7079 115.314 72.2491C115.407 72.4069 115.501 72.5462 115.595 72.6762C116.663 74.1153 118.576 74.9787 120.703 74.9787C121.341 74.9787 121.988 74.8952 122.606 74.7374C123.15 74.5981 123.675 74.4031 124.153 74.1431C127.012 72.6112 129.046 69.1945 129.477 65.2393C129.918 61.182 128.549 56.7625 125.625 52.798C117.976 42.4272 106.83 38.8434 98.8344 37.6643C96.2659 37.2836 93.66 37.0886 91.0822 37.0886C85.6548 37.0886 81.4178 37.9614 80.2648 38.5463L80.1805 38.5927L80.0961 38.6484C78.6994 39.614 77.7245 41.4245 77.6683 43.1514C77.6214 44.6462 78.2588 45.4726 78.8119 45.8997C79.3649 46.3267 80.1055 46.6053 80.8929 46.9024C81.9709 47.3109 83.1988 47.7751 84.1831 48.7314L84.2206 48.7686C86.1141 50.6162 86.1141 53.2158 86.1235 55.5091C86.1235 57.2175 86.1235 58.8423 86.8546 59.9935C87.0983 60.3835 87.4358 60.727 87.8576 60.9963C88.8512 61.6462 90.0605 61.7855 90.9041 61.7762C91.7103 61.7762 92.5258 61.6555 93.2663 61.4234C94.7755 60.9498 96.1909 60.1699 97.6814 59.3436C98.8156 58.7216 99.978 58.0716 101.215 57.5517C101.44 57.4589 101.665 57.366 101.918 57.2825L102.143 57.2082C102.303 57.1525 102.462 57.0968 102.621 57.0504C102.696 57.0225 102.781 57.0039 102.874 56.9761C103.024 56.9297 103.174 56.8925 103.315 56.8554C103.409 56.8275 103.484 56.809 103.559 56.7997C103.728 56.7625 103.868 56.7347 104.018 56.7068L104.121 56.6883C104.121 56.6883 104.196 56.6697 104.243 56.6697C104.44 56.6325 104.618 56.614 104.805 56.5861C104.843 56.5861 104.88 56.5768 104.927 56.5676C105.115 56.549 105.321 56.5304 105.565 56.5211H105.837C105.921 56.5118 106.005 56.5026 106.099 56.5026C106.099 56.5026 106.296 56.5026 106.343 56.5026C106.558 56.5026 106.746 56.5211 106.905 56.5304H106.99C107.158 56.5583 107.336 56.5768 107.533 56.6047H107.59C107.777 56.6418 107.946 56.679 108.124 56.7161L108.227 56.744C108.386 56.7811 108.564 56.8275 108.724 56.8832L108.808 56.9111C108.986 56.9668 109.146 57.0318 109.296 57.0875L109.342 57.1061C109.492 57.171 109.642 57.236 109.811 57.3196L109.877 57.3475C109.999 57.4124 110.139 57.4867 110.317 57.5981L110.392 57.6446V57.6631Z"/>
</mask>
<path d="M92.807 160.526C92.3758 160.526 91.9352 160.489 91.504 160.415C88.87 159.978 86.6859 158.261 85.636 155.838C83.48 150.805 81.7271 146.191 80.4242 142.134C79.6743 139.775 78.2119 137.751 76.1872 136.284C74.1718 134.827 71.7815 134.047 69.2787 134.047C64.9667 134.047 61.0203 136.377 58.9862 140.128C58.6488 140.75 58.3582 141.428 58.1332 142.124C56.849 146.163 55.0961 150.778 52.9214 155.828C51.8809 158.261 49.6874 159.969 47.0533 160.406C46.6222 160.48 46.1816 160.517 45.7504 160.517C43.585 160.517 41.5134 159.598 40.0511 158.01C29.8243 146.804 22.0065 132.608 17.4508 116.954C13.1482 102.09 12.1077 86.6772 14.5355 73.5489C16.5509 62.6489 20.7691 54.1907 26.4028 49.7249C30.7054 46.3082 35.1111 44.6555 39.8636 44.6555C44.6161 44.6555 48.8531 46.1225 53.1651 47.543C58.1238 49.1771 63.2607 50.8576 69.2599 50.969H69.3162C71.4065 50.9319 73.525 50.6997 75.7935 50.2541L78.54 49.7156L76.534 47.7844C75.3061 46.596 74.6874 44.9712 74.753 43.0772C74.8467 40.3939 76.3184 37.7107 78.5213 36.2252C80.0117 35.2225 84.8111 34.2104 91.1103 34.2104C93.7256 34.2104 96.3034 34.3869 98.7781 34.7211C107.496 35.9281 119.654 39.744 128.024 51.0897C131.38 55.6391 132.946 60.7734 132.421 65.555C131.886 70.5129 129.327 74.6816 125.587 76.6964C125.559 76.715 125.531 76.7242 125.503 76.7428L124.631 77.2163L124.753 78.1912C126.365 91.4773 124.734 106.063 120.038 120.38C115.332 134.734 107.88 147.751 98.5063 158.019C97.0533 159.616 94.9724 160.526 92.807 160.526ZM69.2974 131.141C72.4283 131.141 75.4092 132.106 77.9401 133.935C80.471 135.764 82.2989 138.299 83.2457 141.252C84.5018 145.17 86.2641 149.821 88.3544 154.696C89.0106 156.228 90.3417 157.267 92.0008 157.546C92.2727 157.592 92.5539 157.611 92.8257 157.611C94.1756 157.611 95.4223 157.063 96.3316 156.06C114.864 135.755 124.903 105.571 121.913 79.1661L121.772 77.8941L120.479 77.8755C120.479 77.8755 120.357 77.8755 120.319 77.8662C120.216 77.8662 120.113 77.8569 120 77.8477C119.907 77.8477 119.813 77.8291 119.719 77.8198C119.607 77.8105 119.494 77.792 119.382 77.7827C119.297 77.7734 119.213 77.7548 119.119 77.7455C118.997 77.727 118.894 77.7084 118.791 77.6898C118.698 77.6713 118.604 77.6527 118.51 77.6341C118.398 77.6063 118.294 77.5877 118.191 77.5598C118.116 77.5413 118.051 77.5227 117.985 77.5041L117.854 77.467C117.779 77.4484 117.695 77.4206 117.62 77.402C117.563 77.3834 117.507 77.3649 117.441 77.3463L117.245 77.272C117.188 77.2534 117.123 77.2256 117.066 77.207C117.001 77.1792 116.795 77.0956 116.795 77.0956C116.701 77.0585 116.617 77.0213 116.523 76.9749C116.457 76.9471 116.392 76.9099 116.326 76.8821L116.195 76.8171C116.129 76.7799 116.063 76.7521 115.998 76.7149C115.951 76.6964 115.904 76.6592 115.848 76.6314L115.651 76.52C115.651 76.52 115.557 76.4643 115.52 76.4457C115.454 76.4086 115.398 76.3714 115.342 76.3343L115.164 76.2136C115.164 76.2136 115.089 76.1579 115.042 76.13C114.976 76.0836 114.929 76.0465 114.873 76.0093L114.704 75.8793C114.704 75.8793 114.629 75.8236 114.592 75.7958C114.536 75.7494 114.479 75.6936 114.423 75.6472L114.273 75.5172C114.273 75.5172 114.198 75.4523 114.17 75.4244C114.123 75.378 114.067 75.3223 114.011 75.2666L113.879 75.1366C113.879 75.1366 113.823 75.0809 113.795 75.053C113.729 74.988 113.683 74.923 113.636 74.8673L113.495 74.7095C113.495 74.7095 113.448 74.6538 113.42 74.6259C113.364 74.5517 113.308 74.4774 113.251 74.4031L113.092 74.1896C112.989 74.0503 112.895 73.8925 112.801 73.7346C111.555 71.6085 111.395 69.1759 111.236 66.8177C111.03 63.7631 110.795 61.8133 109.342 60.532C108.564 59.845 107.449 59.4736 106.137 59.4736C104.955 59.4736 103.624 59.7614 102.378 60.2814C101.281 60.7456 100.24 61.3212 99.1343 61.934C97.5689 62.7975 95.966 63.6888 94.1662 64.2458C93.1445 64.5615 92.0196 64.7379 90.9229 64.7379C89.2168 64.7379 86.1047 64.3294 84.3799 61.5626C83.2176 59.7057 83.2176 57.5889 83.2176 55.5463V54.9521C83.2176 54.7571 83.2176 54.5621 83.2082 54.3764V54.3393C83.2082 54.1536 83.1988 53.9772 83.1801 53.8101V53.6615C83.1613 53.5315 83.152 53.3923 83.1332 53.2716V53.0116L82.9832 52.6959L82.4395 51.6003L81.2584 51.9439C76.7684 53.2437 73.0845 53.8472 69.3349 53.9122H69.2599C62.8107 53.8008 57.2052 51.9624 52.2652 50.3376C47.7564 48.8521 43.8662 47.5801 39.9199 47.5801C35.9735 47.5801 32.0927 49.0007 28.2494 52.0367C23.2438 56.0105 19.2974 64.0509 17.4321 74.1153C12.4639 100.929 22.672 134.641 42.2633 156.107C43.182 157.11 44.4287 157.657 45.7691 157.657C46.041 157.657 46.3128 157.639 46.594 157.592C48.2532 157.314 49.5843 156.274 50.2404 154.742C52.3777 149.766 54.0931 145.244 55.3492 141.298C55.5929 140.546 55.9022 139.812 56.2678 139.098L56.3334 138.977L56.3709 138.838C56.9521 136.823 62.4639 119.192 76.3278 119.192C77.134 119.192 77.7995 119.842 77.7995 120.649C77.7995 121.457 77.1433 122.107 76.3278 122.107C71.669 122.107 67.5633 124.558 64.1137 129.395L61.8171 132.617L65.6698 131.651C66.8602 131.354 68.0788 131.206 69.2881 131.206L69.2974 131.141ZM110.392 57.6631C110.542 57.756 110.683 57.8488 110.805 57.9417L110.852 57.9788C111.02 58.1088 111.161 58.2202 111.273 58.3223C113.739 60.4949 113.945 63.5959 114.142 66.5948C114.282 68.7117 114.423 70.7079 115.314 72.2491C115.407 72.4069 115.501 72.5462 115.595 72.6762C116.663 74.1153 118.576 74.9787 120.703 74.9787C121.341 74.9787 121.988 74.8952 122.606 74.7374C123.15 74.5981 123.675 74.4031 124.153 74.1431C127.012 72.6112 129.046 69.1945 129.477 65.2393C129.918 61.182 128.549 56.7625 125.625 52.798C117.976 42.4272 106.83 38.8434 98.8344 37.6643C96.2659 37.2836 93.66 37.0886 91.0822 37.0886C85.6548 37.0886 81.4178 37.9614 80.2648 38.5463L80.1805 38.5927L80.0961 38.6484C78.6994 39.614 77.7245 41.4245 77.6683 43.1514C77.6214 44.6462 78.2588 45.4726 78.8119 45.8997C79.3649 46.3267 80.1055 46.6053 80.8929 46.9024C81.9709 47.3109 83.1988 47.7751 84.1831 48.7314L84.2206 48.7686C86.1141 50.6162 86.1141 53.2158 86.1235 55.5091C86.1235 57.2175 86.1235 58.8423 86.8546 59.9935C87.0983 60.3835 87.4358 60.727 87.8576 60.9963C88.8512 61.6462 90.0605 61.7855 90.9041 61.7762C91.7103 61.7762 92.5258 61.6555 93.2663 61.4234C94.7755 60.9498 96.1909 60.1699 97.6814 59.3436C98.8156 58.7216 99.978 58.0716 101.215 57.5517C101.44 57.4589 101.665 57.366 101.918 57.2825L102.143 57.2082C102.303 57.1525 102.462 57.0968 102.621 57.0504C102.696 57.0225 102.781 57.0039 102.874 56.9761C103.024 56.9297 103.174 56.8925 103.315 56.8554C103.409 56.8275 103.484 56.809 103.559 56.7997C103.728 56.7625 103.868 56.7347 104.018 56.7068L104.121 56.6883C104.121 56.6883 104.196 56.6697 104.243 56.6697C104.44 56.6325 104.618 56.614 104.805 56.5861C104.843 56.5861 104.88 56.5768 104.927 56.5676C105.115 56.549 105.321 56.5304 105.565 56.5211H105.837C105.921 56.5118 106.005 56.5026 106.099 56.5026C106.099 56.5026 106.296 56.5026 106.343 56.5026C106.558 56.5026 106.746 56.5211 106.905 56.5304H106.99C107.158 56.5583 107.336 56.5768 107.533 56.6047H107.59C107.777 56.6418 107.946 56.679 108.124 56.7161L108.227 56.744C108.386 56.7811 108.564 56.8275 108.724 56.8832L108.808 56.9111C108.986 56.9668 109.146 57.0318 109.296 57.0875L109.342 57.1061C109.492 57.171 109.642 57.236 109.811 57.3196L109.877 57.3475C109.999 57.4124 110.139 57.4867 110.317 57.5981L110.392 57.6446V57.6631Z" fill="white"/>
<path d="M92.807 160.526C92.3758 160.526 91.9352 160.489 91.504 160.415C88.87 159.978 86.6859 158.261 85.636 155.838C83.48 150.805 81.7271 146.191 80.4242 142.134C79.6743 139.775 78.2119 137.751 76.1872 136.284C74.1718 134.827 71.7815 134.047 69.2787 134.047C64.9667 134.047 61.0203 136.377 58.9862 140.128C58.6488 140.75 58.3582 141.428 58.1332 142.124C56.849 146.163 55.0961 150.778 52.9214 155.828C51.8809 158.261 49.6874 159.969 47.0533 160.406C46.6222 160.48 46.1816 160.517 45.7504 160.517C43.585 160.517 41.5134 159.598 40.0511 158.01C29.8243 146.804 22.0065 132.608 17.4508 116.954C13.1482 102.09 12.1077 86.6772 14.5355 73.5489C16.5509 62.6489 20.7691 54.1907 26.4028 49.7249C30.7054 46.3082 35.1111 44.6555 39.8636 44.6555C44.6161 44.6555 48.8531 46.1225 53.1651 47.543C58.1238 49.1771 63.2607 50.8576 69.2599 50.969H69.3162C71.4065 50.9319 73.525 50.6997 75.7935 50.2541L78.54 49.7156L76.534 47.7844C75.3061 46.596 74.6874 44.9712 74.753 43.0772C74.8467 40.3939 76.3184 37.7107 78.5213 36.2252C80.0117 35.2225 84.8111 34.2104 91.1103 34.2104C93.7256 34.2104 96.3034 34.3869 98.7781 34.7211C107.496 35.9281 119.654 39.744 128.024 51.0897C131.38 55.6391 132.946 60.7734 132.421 65.555C131.886 70.5129 129.327 74.6816 125.587 76.6964C125.559 76.715 125.531 76.7242 125.503 76.7428L124.631 77.2163L124.753 78.1912C126.365 91.4773 124.734 106.063 120.038 120.38C115.332 134.734 107.88 147.751 98.5063 158.019C97.0533 159.616 94.9724 160.526 92.807 160.526ZM69.2974 131.141C72.4283 131.141 75.4092 132.106 77.9401 133.935C80.471 135.764 82.2989 138.299 83.2457 141.252C84.5018 145.17 86.2641 149.821 88.3544 154.696C89.0106 156.228 90.3417 157.267 92.0008 157.546C92.2727 157.592 92.5539 157.611 92.8257 157.611C94.1756 157.611 95.4223 157.063 96.3316 156.06C114.864 135.755 124.903 105.571 121.913 79.1661L121.772 77.8941L120.479 77.8755C120.479 77.8755 120.357 77.8755 120.319 77.8662C120.216 77.8662 120.113 77.8569 120 77.8477C119.907 77.8477 119.813 77.8291 119.719 77.8198C119.607 77.8105 119.494 77.792 119.382 77.7827C119.297 77.7734 119.213 77.7548 119.119 77.7455C118.997 77.727 118.894 77.7084 118.791 77.6898C118.698 77.6713 118.604 77.6527 118.51 77.6341C118.398 77.6063 118.294 77.5877 118.191 77.5598C118.116 77.5413 118.051 77.5227 117.985 77.5041L117.854 77.467C117.779 77.4484 117.695 77.4206 117.62 77.402C117.563 77.3834 117.507 77.3649 117.441 77.3463L117.245 77.272C117.188 77.2534 117.123 77.2256 117.066 77.207C117.001 77.1792 116.795 77.0956 116.795 77.0956C116.701 77.0585 116.617 77.0213 116.523 76.9749C116.457 76.9471 116.392 76.9099 116.326 76.8821L116.195 76.8171C116.129 76.7799 116.063 76.7521 115.998 76.7149C115.951 76.6964 115.904 76.6592 115.848 76.6314L115.651 76.52C115.651 76.52 115.557 76.4643 115.52 76.4457C115.454 76.4086 115.398 76.3714 115.342 76.3343L115.164 76.2136C115.164 76.2136 115.089 76.1579 115.042 76.13C114.976 76.0836 114.929 76.0465 114.873 76.0093L114.704 75.8793C114.704 75.8793 114.629 75.8236 114.592 75.7958C114.536 75.7494 114.479 75.6936 114.423 75.6472L114.273 75.5172C114.273 75.5172 114.198 75.4523 114.17 75.4244C114.123 75.378 114.067 75.3223 114.011 75.2666L113.879 75.1366C113.879 75.1366 113.823 75.0809 113.795 75.053C113.729 74.988 113.683 74.923 113.636 74.8673L113.495 74.7095C113.495 74.7095 113.448 74.6538 113.42 74.6259C113.364 74.5517 113.308 74.4774 113.251 74.4031L113.092 74.1896C112.989 74.0503 112.895 73.8925 112.801 73.7346C111.555 71.6085 111.395 69.1759 111.236 66.8177C111.03 63.7631 110.795 61.8133 109.342 60.532C108.564 59.845 107.449 59.4736 106.137 59.4736C104.955 59.4736 103.624 59.7614 102.378 60.2814C101.281 60.7456 100.24 61.3212 99.1343 61.934C97.5689 62.7975 95.966 63.6888 94.1662 64.2458C93.1445 64.5615 92.0196 64.7379 90.9229 64.7379C89.2168 64.7379 86.1047 64.3294 84.3799 61.5626C83.2176 59.7057 83.2176 57.5889 83.2176 55.5463V54.9521C83.2176 54.7571 83.2176 54.5621 83.2082 54.3764V54.3393C83.2082 54.1536 83.1988 53.9772 83.1801 53.8101V53.6615C83.1613 53.5315 83.152 53.3923 83.1332 53.2716V53.0116L82.9832 52.6959L82.4395 51.6003L81.2584 51.9439C76.7684 53.2437 73.0845 53.8472 69.3349 53.9122H69.2599C62.8107 53.8008 57.2052 51.9624 52.2652 50.3376C47.7564 48.8521 43.8662 47.5801 39.9199 47.5801C35.9735 47.5801 32.0927 49.0007 28.2494 52.0367C23.2438 56.0105 19.2974 64.0509 17.4321 74.1153C12.4639 100.929 22.672 134.641 42.2633 156.107C43.182 157.11 44.4287 157.657 45.7691 157.657C46.041 157.657 46.3128 157.639 46.594 157.592C48.2532 157.314 49.5843 156.274 50.2404 154.742C52.3777 149.766 54.0931 145.244 55.3492 141.298C55.5929 140.546 55.9022 139.812 56.2678 139.098L56.3334 138.977L56.3709 138.838C56.9521 136.823 62.4639 119.192 76.3278 119.192C77.134 119.192 77.7995 119.842 77.7995 120.649C77.7995 121.457 77.1433 122.107 76.3278 122.107C71.669 122.107 67.5633 124.558 64.1137 129.395L61.8171 132.617L65.6698 131.651C66.8602 131.354 68.0788 131.206 69.2881 131.206L69.2974 131.141ZM110.392 57.6631C110.542 57.756 110.683 57.8488 110.805 57.9417L110.852 57.9788C111.02 58.1088 111.161 58.2202 111.273 58.3223C113.739 60.4949 113.945 63.5959 114.142 66.5948C114.282 68.7117 114.423 70.7079 115.314 72.2491C115.407 72.4069 115.501 72.5462 115.595 72.6762C116.663 74.1153 118.576 74.9787 120.703 74.9787C121.341 74.9787 121.988 74.8952 122.606 74.7374C123.15 74.5981 123.675 74.4031 124.153 74.1431C127.012 72.6112 129.046 69.1945 129.477 65.2393C129.918 61.182 128.549 56.7625 125.625 52.798C117.976 42.4272 106.83 38.8434 98.8344 37.6643C96.2659 37.2836 93.66 37.0886 91.0822 37.0886C85.6548 37.0886 81.4178 37.9614 80.2648 38.5463L80.1805 38.5927L80.0961 38.6484C78.6994 39.614 77.7245 41.4245 77.6683 43.1514C77.6214 44.6462 78.2588 45.4726 78.8119 45.8997C79.3649 46.3267 80.1055 46.6053 80.8929 46.9024C81.9709 47.3109 83.1988 47.7751 84.1831 48.7314L84.2206 48.7686C86.1141 50.6162 86.1141 53.2158 86.1235 55.5091C86.1235 57.2175 86.1235 58.8423 86.8546 59.9935C87.0983 60.3835 87.4358 60.727 87.8576 60.9963C88.8512 61.6462 90.0605 61.7855 90.9041 61.7762C91.7103 61.7762 92.5258 61.6555 93.2663 61.4234C94.7755 60.9498 96.1909 60.1699 97.6814 59.3436C98.8156 58.7216 99.978 58.0716 101.215 57.5517C101.44 57.4589 101.665 57.366 101.918 57.2825L102.143 57.2082C102.303 57.1525 102.462 57.0968 102.621 57.0504C102.696 57.0225 102.781 57.0039 102.874 56.9761C103.024 56.9297 103.174 56.8925 103.315 56.8554C103.409 56.8275 103.484 56.809 103.559 56.7997C103.728 56.7625 103.868 56.7347 104.018 56.7068L104.121 56.6883C104.121 56.6883 104.196 56.6697 104.243 56.6697C104.44 56.6325 104.618 56.614 104.805 56.5861C104.843 56.5861 104.88 56.5768 104.927 56.5676C105.115 56.549 105.321 56.5304 105.565 56.5211H105.837C105.921 56.5118 106.005 56.5026 106.099 56.5026C106.099 56.5026 106.296 56.5026 106.343 56.5026C106.558 56.5026 106.746 56.5211 106.905 56.5304H106.99C107.158 56.5583 107.336 56.5768 107.533 56.6047H107.59C107.777 56.6418 107.946 56.679 108.124 56.7161L108.227 56.744C108.386 56.7811 108.564 56.8275 108.724 56.8832L108.808 56.9111C108.986 56.9668 109.146 57.0318 109.296 57.0875L109.342 57.1061C109.492 57.171 109.642 57.236 109.811 57.3196L109.877 57.3475C109.999 57.4124 110.139 57.4867 110.317 57.5981L110.392 57.6446V57.6631Z" stroke="white" stroke-width="4" mask="url(#path-6-outside-1_14_986)"/>
</svg>
