<svg width="156" height="156" viewBox="0 0 156 156" fill="none" xmlns="http://www.w3.org/2000/svg">
<path d="M87.2193 70.631C87.2193 71.8732 88.2285 72.8824 89.4706 72.8824C90.7127 72.8824 91.7219 71.8732 91.7219 70.631C91.7219 68.7689 93.2395 67.2514 95.1016 67.2514C96.3438 67.2514 97.353 66.2422 97.353 65C97.353 63.7579 96.3438 62.7487 95.1016 62.7487C93.2395 62.7487 91.7219 61.2312 91.7219 59.369C91.7219 58.1269 90.7127 57.1177 89.4706 57.1177C88.2285 57.1177 87.2193 58.1269 87.2193 59.369C87.2193 61.2312 85.7017 62.7487 83.8396 62.7487C82.5975 62.7487 81.5883 63.7579 81.5883 65C81.5883 66.2422 82.5975 67.2514 83.8396 67.2514C85.7017 67.2514 87.2193 68.7689 87.2193 70.631Z" fill="white" stroke="white" stroke-width="2"/>
<path d="M127.61 26.278C127.61 27.6166 128.783 28.5294 130 28.5294C131.217 28.5294 132.39 27.6167 132.39 26.278C132.39 24.5124 134.025 22.8983 136.257 22.8983C137.474 22.8983 138.647 21.9856 138.647 20.647C138.647 19.3084 137.474 18.3957 136.257 18.3957C134.025 18.3957 132.39 16.7816 132.39 15.016C132.39 13.6774 131.217 12.7646 130 12.7646C128.783 12.7646 127.61 13.6774 127.61 15.016C127.61 16.7816 125.975 18.3957 123.743 18.3957C122.526 18.3957 121.353 19.3084 121.353 20.647C121.353 21.9856 122.526 22.8983 123.743 22.8983C125.975 22.8983 127.61 24.5124 127.61 26.278Z" fill="white" stroke="white" stroke-width="2"/>
<mask id="path-3-outside-1_14_977" maskUnits="userSpaceOnUse" x="11.7646" y="25.5293" width="133" height="119" fill="black">
<rect fill="white" x="11.7646" y="25.5293" width="133" height="119"/>
<path d="M101.97 142.235C95.1562 142.235 89.2868 137.606 87.6943 130.983L80.8234 102.339C80.4294 100.698 79.1078 100.107 77.9913 100.107C76.8749 100.107 75.5533 100.69 75.1593 102.339L68.2884 130.983C66.6959 137.606 60.8265 142.235 54.0131 142.235C47.7414 142.235 42.1676 138.255 40.1317 132.329L30.4945 104.268L29.5012 104.35C29.0415 104.383 28.6639 104.408 28.3109 104.408C20.2908 104.408 13.7646 97.8827 13.7646 89.8641C13.7646 84.8987 16.2355 80.3436 20.381 77.668L21.1773 77.1509L20.9146 76.2399C19.8721 72.6123 19.3796 68.8451 19.4452 65.0369C19.5602 58.0852 21.596 51.306 25.3146 45.4131C25.5527 45.0438 25.9549 44.814 26.3982 44.814C26.6363 44.814 26.8743 44.8796 27.0795 45.0109C27.6788 45.3885 27.8512 46.1764 27.4818 46.7755C24.0094 52.2662 22.1213 58.5941 22.0146 65.0697C21.99 66.4321 22.0475 67.811 22.1788 69.1734L22.4661 72.1526L24.4198 69.8874C26.2504 67.7699 28.8937 66.5552 31.6765 66.5552C36.0355 66.5552 39.8444 69.477 40.9444 73.6628L41.1743 74.5246L42.0608 74.6148C48.119 75.2058 52.6914 80.2451 52.6914 86.3431C52.6914 92.8105 47.4295 98.0961 40.9526 98.1207H40.3205L39.9347 98.6295C38.4161 100.649 36.3967 102.241 34.0982 103.226L33.0064 103.693L42.5534 131.508C44.2362 136.4 48.8414 139.691 54.0131 139.691C59.6444 139.691 64.4877 135.866 65.8011 130.4L72.672 101.757C73.2712 99.2451 75.4137 97.5626 77.9913 97.5626C80.569 97.5626 82.7033 99.2451 83.3107 101.757L90.1816 130.4C91.495 135.874 96.3383 139.691 101.97 139.691C107.149 139.691 111.755 136.4 113.429 131.508C113.61 130.975 131.645 78.4559 131.891 77.7418C131.965 77.5367 132.039 77.3233 132.105 77.1181L132.449 76.0922L131.497 75.5751C130.783 75.1894 130.151 74.7051 129.617 74.1224L129.215 73.6874L128.616 73.712C128.427 73.7202 128.238 73.7285 128.049 73.7285C125.726 73.7285 123.477 73.0308 121.548 71.7177C119.036 70.0105 117.32 67.4334 116.721 64.4624C116.105 61.4338 116.696 58.3397 118.404 55.7626C120.111 53.1855 122.714 51.4209 125.751 50.8053C126.514 50.6494 127.302 50.5673 128.09 50.5673C128.214 50.5673 128.345 50.5673 128.468 50.5673L130.709 50.6412L129.634 48.6796C123.379 37.255 111.451 30.131 98.5055 30.0818H98.3741C92.6936 30.0818 87.0458 31.4524 82.0384 34.0459L80.3145 34.9405L81.8167 36.1716C82.9824 37.1237 84.0824 38.1414 85.1085 39.2001C85.601 39.709 85.5846 40.5215 85.0757 41.0058C84.8376 41.2356 84.5174 41.3669 84.1891 41.3669C83.8361 41.3669 83.5078 41.2274 83.2697 40.9729C81.7675 39.4135 80.1175 37.9855 78.3443 36.7215L78.3608 36.6969L77.3182 36.0075C71.4817 32.1336 64.6765 30.0818 57.6414 30.0818H57.5018C52.9623 30.0982 48.5377 30.9682 44.3511 32.6671C44.1952 32.7328 44.031 32.7656 43.875 32.7656C43.3496 32.7656 42.8899 32.4537 42.6929 31.9695C42.5616 31.6494 42.5698 31.3047 42.6929 30.9928C42.8243 30.6809 43.0705 30.4347 43.3907 30.3034C47.8892 28.4813 52.6339 27.5457 57.5018 27.5293H57.6496C64.619 27.5293 71.4324 29.4252 77.3593 33.0118L78.0242 33.414L78.6891 33.0118C84.616 29.4252 91.4376 27.5293 98.3988 27.5293H98.5383C106.189 27.5539 113.602 29.8848 119.972 34.2675C126.334 38.642 131.169 44.7319 133.96 51.8641L134.108 52.2334L134.461 52.4714L134.493 52.4878C137.063 54.195 138.82 56.7967 139.443 59.817C139.657 60.8593 139.723 61.9181 139.649 62.9686L139.608 63.5678L140.034 63.9863C141.085 64.9958 141.791 66.2926 142.087 67.7371C142.891 71.6602 140.346 75.5012 136.431 76.2974C136.25 76.3302 136.061 76.363 135.84 76.3876L135.019 76.4861L134.773 77.274C134.608 77.7829 134.452 78.2425 134.296 78.6693L134.313 78.6282C134.28 78.7267 133.656 80.5323 115.876 132.312C113.84 138.238 108.258 142.219 101.994 142.219L101.97 142.235ZM31.693 69.0995C27.8183 69.0995 24.6579 72.2511 24.6579 76.1332C24.6579 76.5107 24.6907 76.9047 24.7564 77.2904C24.8549 77.8814 24.5184 78.4723 23.9601 78.6857C19.3385 80.4995 16.3505 84.8822 16.3505 89.8477C16.3505 93.0486 17.5982 96.0524 19.8639 98.3177C22.1296 100.583 25.1422 101.83 28.3355 101.83C32.5467 101.83 36.3803 99.6801 38.5803 96.0771C38.8101 95.6995 39.2288 95.4615 39.672 95.4615C39.7213 95.4615 39.7706 95.4615 39.8198 95.4697C40.1974 95.519 40.5586 95.5354 40.9198 95.5354C46.0093 95.5354 50.1466 91.3989 50.1466 86.3103C50.1466 81.2218 46.0093 77.0853 40.9198 77.0853C40.6653 77.0853 40.4026 77.1017 40.1071 77.1263C40.0743 77.1263 40.0414 77.1263 40.0004 77.1263C39.6803 77.1263 39.3765 77.0114 39.1467 76.8062C38.884 76.5764 38.728 76.2399 38.7198 75.887C38.5967 72.0706 35.5101 69.0831 31.693 69.0831V69.0995ZM129.839 71.0036C130.282 71.0036 130.701 71.2416 130.931 71.6192C131.776 73.0144 133.32 73.8844 134.953 73.8844C135.265 73.8844 135.585 73.8516 135.889 73.7859C137.12 73.5315 138.171 72.8174 138.869 71.7751C139.558 70.7246 139.805 69.4771 139.55 68.2459C139.296 66.9902 138.557 65.9233 137.481 65.2339C137.038 64.9466 136.817 64.4295 136.915 63.9043C137.153 62.7224 137.145 61.5241 136.907 60.3341C136.423 57.9703 135.052 55.9431 133.04 54.6135C131.563 53.6369 129.847 53.1198 128.082 53.1198C127.475 53.1198 126.859 53.1855 126.26 53.3086C123.896 53.7928 121.868 55.1634 120.538 57.1742C119.208 59.185 118.741 61.5898 119.225 63.9535C120.095 68.2049 123.715 71.1678 128.025 71.1678C128.55 71.1678 129.084 71.1185 129.609 71.0282C129.683 71.02 129.757 71.0118 129.831 71.0118L129.839 71.0036Z"/>
</mask>
<path d="M101.97 142.235C95.1562 142.235 89.2868 137.606 87.6943 130.983L80.8234 102.339C80.4294 100.698 79.1078 100.107 77.9913 100.107C76.8749 100.107 75.5533 100.69 75.1593 102.339L68.2884 130.983C66.6959 137.606 60.8265 142.235 54.0131 142.235C47.7414 142.235 42.1676 138.255 40.1317 132.329L30.4945 104.268L29.5012 104.35C29.0415 104.383 28.6639 104.408 28.3109 104.408C20.2908 104.408 13.7646 97.8827 13.7646 89.8641C13.7646 84.8987 16.2355 80.3436 20.381 77.668L21.1773 77.1509L20.9146 76.2399C19.8721 72.6123 19.3796 68.8451 19.4452 65.0369C19.5602 58.0852 21.596 51.306 25.3146 45.4131C25.5527 45.0438 25.9549 44.814 26.3982 44.814C26.6363 44.814 26.8743 44.8796 27.0795 45.0109C27.6788 45.3885 27.8512 46.1764 27.4818 46.7755C24.0094 52.2662 22.1213 58.5941 22.0146 65.0697C21.99 66.4321 22.0475 67.811 22.1788 69.1734L22.4661 72.1526L24.4198 69.8874C26.2504 67.7699 28.8937 66.5552 31.6765 66.5552C36.0355 66.5552 39.8444 69.477 40.9444 73.6628L41.1743 74.5246L42.0608 74.6148C48.119 75.2058 52.6914 80.2451 52.6914 86.3431C52.6914 92.8105 47.4295 98.0961 40.9526 98.1207H40.3205L39.9347 98.6295C38.4161 100.649 36.3967 102.241 34.0982 103.226L33.0064 103.693L42.5534 131.508C44.2362 136.4 48.8414 139.691 54.0131 139.691C59.6444 139.691 64.4877 135.866 65.8011 130.4L72.672 101.757C73.2712 99.2451 75.4137 97.5626 77.9913 97.5626C80.569 97.5626 82.7033 99.2451 83.3107 101.757L90.1816 130.4C91.495 135.874 96.3383 139.691 101.97 139.691C107.149 139.691 111.755 136.4 113.429 131.508C113.61 130.975 131.645 78.4559 131.891 77.7418C131.965 77.5367 132.039 77.3233 132.105 77.1181L132.449 76.0922L131.497 75.5751C130.783 75.1894 130.151 74.7051 129.617 74.1224L129.215 73.6874L128.616 73.712C128.427 73.7202 128.238 73.7285 128.049 73.7285C125.726 73.7285 123.477 73.0308 121.548 71.7177C119.036 70.0105 117.32 67.4334 116.721 64.4624C116.105 61.4338 116.696 58.3397 118.404 55.7626C120.111 53.1855 122.714 51.4209 125.751 50.8053C126.514 50.6494 127.302 50.5673 128.09 50.5673C128.214 50.5673 128.345 50.5673 128.468 50.5673L130.709 50.6412L129.634 48.6796C123.379 37.255 111.451 30.131 98.5055 30.0818H98.3741C92.6936 30.0818 87.0458 31.4524 82.0384 34.0459L80.3145 34.9405L81.8167 36.1716C82.9824 37.1237 84.0824 38.1414 85.1085 39.2001C85.601 39.709 85.5846 40.5215 85.0757 41.0058C84.8376 41.2356 84.5174 41.3669 84.1891 41.3669C83.8361 41.3669 83.5078 41.2274 83.2697 40.9729C81.7675 39.4135 80.1175 37.9855 78.3443 36.7215L78.3608 36.6969L77.3182 36.0075C71.4817 32.1336 64.6765 30.0818 57.6414 30.0818H57.5018C52.9623 30.0982 48.5377 30.9682 44.3511 32.6671C44.1952 32.7328 44.031 32.7656 43.875 32.7656C43.3496 32.7656 42.8899 32.4537 42.6929 31.9695C42.5616 31.6494 42.5698 31.3047 42.6929 30.9928C42.8243 30.6809 43.0705 30.4347 43.3907 30.3034C47.8892 28.4813 52.6339 27.5457 57.5018 27.5293H57.6496C64.619 27.5293 71.4324 29.4252 77.3593 33.0118L78.0242 33.414L78.6891 33.0118C84.616 29.4252 91.4376 27.5293 98.3988 27.5293H98.5383C106.189 27.5539 113.602 29.8848 119.972 34.2675C126.334 38.642 131.169 44.7319 133.96 51.8641L134.108 52.2334L134.461 52.4714L134.493 52.4878C137.063 54.195 138.82 56.7967 139.443 59.817C139.657 60.8593 139.723 61.9181 139.649 62.9686L139.608 63.5678L140.034 63.9863C141.085 64.9958 141.791 66.2926 142.087 67.7371C142.891 71.6602 140.346 75.5012 136.431 76.2974C136.25 76.3302 136.061 76.363 135.84 76.3876L135.019 76.4861L134.773 77.274C134.608 77.7829 134.452 78.2425 134.296 78.6693L134.313 78.6282C134.28 78.7267 133.656 80.5323 115.876 132.312C113.84 138.238 108.258 142.219 101.994 142.219L101.97 142.235ZM31.693 69.0995C27.8183 69.0995 24.6579 72.2511 24.6579 76.1332C24.6579 76.5107 24.6907 76.9047 24.7564 77.2904C24.8549 77.8814 24.5184 78.4723 23.9601 78.6857C19.3385 80.4995 16.3505 84.8822 16.3505 89.8477C16.3505 93.0486 17.5982 96.0524 19.8639 98.3177C22.1296 100.583 25.1422 101.83 28.3355 101.83C32.5467 101.83 36.3803 99.6801 38.5803 96.0771C38.8101 95.6995 39.2288 95.4615 39.672 95.4615C39.7213 95.4615 39.7706 95.4615 39.8198 95.4697C40.1974 95.519 40.5586 95.5354 40.9198 95.5354C46.0093 95.5354 50.1466 91.3989 50.1466 86.3103C50.1466 81.2218 46.0093 77.0853 40.9198 77.0853C40.6653 77.0853 40.4026 77.1017 40.1071 77.1263C40.0743 77.1263 40.0414 77.1263 40.0004 77.1263C39.6803 77.1263 39.3765 77.0114 39.1467 76.8062C38.884 76.5764 38.728 76.2399 38.7198 75.887C38.5967 72.0706 35.5101 69.0831 31.693 69.0831V69.0995ZM129.839 71.0036C130.282 71.0036 130.701 71.2416 130.931 71.6192C131.776 73.0144 133.32 73.8844 134.953 73.8844C135.265 73.8844 135.585 73.8516 135.889 73.7859C137.12 73.5315 138.171 72.8174 138.869 71.7751C139.558 70.7246 139.805 69.4771 139.55 68.2459C139.296 66.9902 138.557 65.9233 137.481 65.2339C137.038 64.9466 136.817 64.4295 136.915 63.9043C137.153 62.7224 137.145 61.5241 136.907 60.3341C136.423 57.9703 135.052 55.9431 133.04 54.6135C131.563 53.6369 129.847 53.1198 128.082 53.1198C127.475 53.1198 126.859 53.1855 126.26 53.3086C123.896 53.7928 121.868 55.1634 120.538 57.1742C119.208 59.185 118.741 61.5898 119.225 63.9535C120.095 68.2049 123.715 71.1678 128.025 71.1678C128.55 71.1678 129.084 71.1185 129.609 71.0282C129.683 71.02 129.757 71.0118 129.831 71.0118L129.839 71.0036Z" fill="white"/>
<path d="M101.97 142.235C95.1562 142.235 89.2868 137.606 87.6943 130.983L80.8234 102.339C80.4294 100.698 79.1078 100.107 77.9913 100.107C76.8749 100.107 75.5533 100.69 75.1593 102.339L68.2884 130.983C66.6959 137.606 60.8265 142.235 54.0131 142.235C47.7414 142.235 42.1676 138.255 40.1317 132.329L30.4945 104.268L29.5012 104.35C29.0415 104.383 28.6639 104.408 28.3109 104.408C20.2908 104.408 13.7646 97.8827 13.7646 89.8641C13.7646 84.8987 16.2355 80.3436 20.381 77.668L21.1773 77.1509L20.9146 76.2399C19.8721 72.6123 19.3796 68.8451 19.4452 65.0369C19.5602 58.0852 21.596 51.306 25.3146 45.4131C25.5527 45.0438 25.9549 44.814 26.3982 44.814C26.6363 44.814 26.8743 44.8796 27.0795 45.0109C27.6788 45.3885 27.8512 46.1764 27.4818 46.7755C24.0094 52.2662 22.1213 58.5941 22.0146 65.0697C21.99 66.4321 22.0475 67.811 22.1788 69.1734L22.4661 72.1526L24.4198 69.8874C26.2504 67.7699 28.8937 66.5552 31.6765 66.5552C36.0355 66.5552 39.8444 69.477 40.9444 73.6628L41.1743 74.5246L42.0608 74.6148C48.119 75.2058 52.6914 80.2451 52.6914 86.3431C52.6914 92.8105 47.4295 98.0961 40.9526 98.1207H40.3205L39.9347 98.6295C38.4161 100.649 36.3967 102.241 34.0982 103.226L33.0064 103.693L42.5534 131.508C44.2362 136.4 48.8414 139.691 54.0131 139.691C59.6444 139.691 64.4877 135.866 65.8011 130.4L72.672 101.757C73.2712 99.2451 75.4137 97.5626 77.9913 97.5626C80.569 97.5626 82.7033 99.2451 83.3107 101.757L90.1816 130.4C91.495 135.874 96.3383 139.691 101.97 139.691C107.149 139.691 111.755 136.4 113.429 131.508C113.61 130.975 131.645 78.4559 131.891 77.7418C131.965 77.5367 132.039 77.3233 132.105 77.1181L132.449 76.0922L131.497 75.5751C130.783 75.1894 130.151 74.7051 129.617 74.1224L129.215 73.6874L128.616 73.712C128.427 73.7202 128.238 73.7285 128.049 73.7285C125.726 73.7285 123.477 73.0308 121.548 71.7177C119.036 70.0105 117.32 67.4334 116.721 64.4624C116.105 61.4338 116.696 58.3397 118.404 55.7626C120.111 53.1855 122.714 51.4209 125.751 50.8053C126.514 50.6494 127.302 50.5673 128.09 50.5673C128.214 50.5673 128.345 50.5673 128.468 50.5673L130.709 50.6412L129.634 48.6796C123.379 37.255 111.451 30.131 98.5055 30.0818H98.3741C92.6936 30.0818 87.0458 31.4524 82.0384 34.0459L80.3145 34.9405L81.8167 36.1716C82.9824 37.1237 84.0824 38.1414 85.1085 39.2001C85.601 39.709 85.5846 40.5215 85.0757 41.0058C84.8376 41.2356 84.5174 41.3669 84.1891 41.3669C83.8361 41.3669 83.5078 41.2274 83.2697 40.9729C81.7675 39.4135 80.1175 37.9855 78.3443 36.7215L78.3608 36.6969L77.3182 36.0075C71.4817 32.1336 64.6765 30.0818 57.6414 30.0818H57.5018C52.9623 30.0982 48.5377 30.9682 44.3511 32.6671C44.1952 32.7328 44.031 32.7656 43.875 32.7656C43.3496 32.7656 42.8899 32.4537 42.6929 31.9695C42.5616 31.6494 42.5698 31.3047 42.6929 30.9928C42.8243 30.6809 43.0705 30.4347 43.3907 30.3034C47.8892 28.4813 52.6339 27.5457 57.5018 27.5293H57.6496C64.619 27.5293 71.4324 29.4252 77.3593 33.0118L78.0242 33.414L78.6891 33.0118C84.616 29.4252 91.4376 27.5293 98.3988 27.5293H98.5383C106.189 27.5539 113.602 29.8848 119.972 34.2675C126.334 38.642 131.169 44.7319 133.96 51.8641L134.108 52.2334L134.461 52.4714L134.493 52.4878C137.063 54.195 138.82 56.7967 139.443 59.817C139.657 60.8593 139.723 61.9181 139.649 62.9686L139.608 63.5678L140.034 63.9863C141.085 64.9958 141.791 66.2926 142.087 67.7371C142.891 71.6602 140.346 75.5012 136.431 76.2974C136.25 76.3302 136.061 76.363 135.84 76.3876L135.019 76.4861L134.773 77.274C134.608 77.7829 134.452 78.2425 134.296 78.6693L134.313 78.6282C134.28 78.7267 133.656 80.5323 115.876 132.312C113.84 138.238 108.258 142.219 101.994 142.219L101.97 142.235ZM31.693 69.0995C27.8183 69.0995 24.6579 72.2511 24.6579 76.1332C24.6579 76.5107 24.6907 76.9047 24.7564 77.2904C24.8549 77.8814 24.5184 78.4723 23.9601 78.6857C19.3385 80.4995 16.3505 84.8822 16.3505 89.8477C16.3505 93.0486 17.5982 96.0524 19.8639 98.3177C22.1296 100.583 25.1422 101.83 28.3355 101.83C32.5467 101.83 36.3803 99.6801 38.5803 96.0771C38.8101 95.6995 39.2288 95.4615 39.672 95.4615C39.7213 95.4615 39.7706 95.4615 39.8198 95.4697C40.1974 95.519 40.5586 95.5354 40.9198 95.5354C46.0093 95.5354 50.1466 91.3989 50.1466 86.3103C50.1466 81.2218 46.0093 77.0853 40.9198 77.0853C40.6653 77.0853 40.4026 77.1017 40.1071 77.1263C40.0743 77.1263 40.0414 77.1263 40.0004 77.1263C39.6803 77.1263 39.3765 77.0114 39.1467 76.8062C38.884 76.5764 38.728 76.2399 38.7198 75.887C38.5967 72.0706 35.5101 69.0831 31.693 69.0831V69.0995ZM129.839 71.0036C130.282 71.0036 130.701 71.2416 130.931 71.6192C131.776 73.0144 133.32 73.8844 134.953 73.8844C135.265 73.8844 135.585 73.8516 135.889 73.7859C137.12 73.5315 138.171 72.8174 138.869 71.7751C139.558 70.7246 139.805 69.4771 139.55 68.2459C139.296 66.9902 138.557 65.9233 137.481 65.2339C137.038 64.9466 136.817 64.4295 136.915 63.9043C137.153 62.7224 137.145 61.5241 136.907 60.3341C136.423 57.9703 135.052 55.9431 133.04 54.6135C131.563 53.6369 129.847 53.1198 128.082 53.1198C127.475 53.1198 126.859 53.1855 126.26 53.3086C123.896 53.7928 121.868 55.1634 120.538 57.1742C119.208 59.185 118.741 61.5898 119.225 63.9535C120.095 68.2049 123.715 71.1678 128.025 71.1678C128.55 71.1678 129.084 71.1185 129.609 71.0282C129.683 71.02 129.757 71.0118 129.831 71.0118L129.839 71.0036Z" stroke="white" stroke-width="4" mask="url(#path-3-outside-1_14_977)"/>
<path d="M98.4117 87.1765C98.4117 92.787 102.978 97.3529 108.588 97.3529C114.199 97.3529 118.765 92.787 118.765 87.1765C118.765 81.566 114.199 77 108.588 77C102.978 77 98.4117 81.566 98.4117 87.1765ZM102.897 87.1844C102.897 84.0486 105.452 81.4933 108.588 81.4933C111.724 81.4933 114.279 84.0486 114.279 87.1844C114.279 90.3203 111.724 92.8756 108.588 92.8756C105.452 92.8756 102.897 90.3203 102.897 87.1844Z" fill="white" stroke="white" stroke-width="2"/>
<path d="M51 54.2942C51 58.6387 54.5379 62.1766 58.8824 62.1766C63.2268 62.1766 66.7647 58.6387 66.7647 54.2942C66.7647 49.9498 63.2268 46.4119 58.8824 46.4119C54.5379 46.4119 51 49.9498 51 54.2942ZM55.5173 54.2942C55.5173 52.4421 57.0303 50.9292 58.8824 50.9292C60.7345 50.9292 62.2474 52.4421 62.2474 54.2942C62.2474 56.1463 60.7345 57.6592 58.8824 57.6592C57.0303 57.6592 55.5173 56.1463 55.5173 54.2942Z" fill="white" stroke="white" stroke-width="2"/>
<path d="M12.7646 20.647C12.7646 24.6541 15.7736 27.9661 19.647 28.4582V28.5294H20.647C24.9914 28.5294 28.5294 24.9914 28.5294 20.647C28.5294 16.3026 24.9914 12.7646 20.647 12.7646C16.3026 12.7646 12.7646 16.3026 12.7646 20.647ZM17.282 20.647C17.282 18.7949 18.7949 17.282 20.647 17.282C22.4991 17.282 24.012 18.7949 24.012 20.647C24.012 22.4991 22.4991 24.012 20.647 24.012C18.7949 24.012 17.282 22.4991 17.282 20.647Z" fill="white" stroke="white" stroke-width="2"/>
<path d="M24.5392 30.2128C23.6816 30.2128 22.9836 29.5148 22.9836 28.6573C22.9836 27.7998 23.6816 27.1018 24.5392 27.1018C25.3967 27.1018 26.0947 27.7998 26.0947 28.6573C26.0947 29.5148 25.3967 30.2128 24.5392 30.2128Z" fill="white"/>
</svg>
